<?xml version="1.0" encoding="UTF-8"?>
<svg xmlns="http://www.w3.org/2000/svg" xmlns:xlink="http://www.w3.org/1999/xlink" width="276px" height="310px" viewBox="0 0 276 310" version="1.1">
<defs>
<clipPath id="clip1">
  <path d="M 55.199219 105.363281 L 220.800781 105.363281 L 220.800781 204.636719 L 55.199219 204.636719 Z M 55.199219 105.363281 "/>
</clipPath>
</defs>
<g id="surface1">
<path style=" stroke:none;fill-rule:nonzero;fill:rgb(99.607843%,0%,22.352941%);fill-opacity:1;" d="M 18.078125 195.660156 L 21.292969 199.671875 L 19.6875 194.457031 C 19.285156 192.050781 16.472656 194.859375 18.078125 195.660156 M 21.695312 193.253906 C 22.898438 195.261719 24.105469 197.265625 24.105469 199.269531 C 24.105469 202.078125 26.515625 203.28125 28.523438 204.085938 C 25.710938 200.875 24.105469 192.050781 21.695312 193.253906 M 175.964844 23.1875 C 182.792969 23.1875 189.222656 22.386719 196.453125 23.992188 C 214.132812 28.402344 228.996094 37.226562 239.039062 49.660156 L 267.160156 94.585938 C 268.367188 105.816406 270.777344 118.25 270.375 131.886719 C 273.1875 131.886719 272.785156 127.875 276 127.074219 C 272.785156 135.09375 271.179688 145.125 270.375 156.753906 C 268.367188 150.335938 270.375 140.710938 270.777344 135.496094 C 267.964844 139.910156 266.359375 136.699219 266.359375 134.695312 C 266.761719 131.484375 265.152344 131.886719 263.949219 130.683594 C 259.527344 126.671875 256.714844 122.257812 253.503906 115.441406 C 255.511719 110.226562 255.914062 102.605469 249.484375 98.59375 C 247.476562 97.390625 245.066406 95.386719 243.859375 92.175781 C 242.253906 87.765625 239.441406 82.550781 240.246094 75.734375 C 240.644531 73.726562 234.21875 80.144531 230.601562 77.335938 C 214.933594 66.507812 199.265625 54.074219 180.382812 43.644531 C 170.339844 43.644531 163.109375 40.035156 159.492188 35.621094 C 156.28125 31.613281 158.691406 26.398438 163.511719 25.996094 C 166.324219 25.996094 169.539062 25.195312 171.949219 26.796875 C 172.351562 25.195312 173.957031 23.1875 175.964844 23.1875 M 136.191406 13.964844 L 136.996094 14.363281 C 141.011719 15.167969 143.023438 20.78125 147.441406 18.777344 C 147.441406 21.585938 147.84375 24.390625 147.039062 26.398438 C 145.835938 29.605469 142.21875 29.605469 139.40625 29.605469 C 112.488281 28 96.820312 39.230469 80.351562 48.859375 C 75.929688 51.667969 71.109375 53.671875 67.492188 57.28125 C 50.21875 73.328125 31.335938 88.167969 26.917969 117.847656 L 23.300781 150.738281 C 22.898438 154.347656 18.882812 157.957031 19.6875 162.371094 L 22.496094 182.023438 C 19.683594 179.214844 18.078125 182.828125 18.882812 184.429688 C 19.285156 185.632812 20.890625 189.644531 23.300781 186.035156 C 26.515625 192.050781 29.730469 203.683594 34.148438 208.898438 C 47.808594 224.941406 65.484375 239.382812 79.949219 253.820312 C 83.5625 253.019531 86.375 253.019531 87.179688 250.613281 C 88.382812 253.019531 85.972656 255.425781 83.964844 255.828125 C 90.394531 259.835938 97.625 263.449219 107.265625 264.25 C 119.722656 265.050781 131.371094 267.058594 142.21875 269.867188 C 147.84375 268.261719 153.46875 267.457031 159.492188 267.058594 C 161.503906 267.058594 162.707031 263.847656 165.117188 263.046875 L 165.519531 259.035156 C 167.929688 262.644531 167.527344 257.832031 165.921875 255.425781 C 168.734375 257.832031 169.539062 259.835938 170.742188 261.441406 C 170.742188 260.238281 173.957031 255.828125 173.957031 261.039062 L 174.757812 255.828125 C 175.964844 255.023438 176.367188 260.238281 177.574219 256.628906 C 178.777344 253.019531 181.1875 255.824219 183.597656 254.621094 C 182.792969 256.226562 183.195312 259.4375 186.007812 257.429688 L 189.222656 254.621094 C 191.230469 259.4375 194.445312 257.429688 196.050781 256.628906 C 213.730469 245.398438 231.40625 232.160156 248.277344 218.925781 L 247.878906 224.140625 L 249.886719 217.722656 C 251.894531 219.726562 253.5 218.121094 254.304688 216.917969 C 256.714844 212.910156 259.929688 208.898438 265.152344 205.289062 C 258.726562 222.535156 251.09375 236.171875 241.449219 247.402344 L 237.433594 252.21875 C 237.433594 255.023438 236.628906 258.632812 233.414062 259.035156 C 231.808594 259.4375 228.59375 258.234375 226.183594 260.640625 C 224.980469 262.242188 228.996094 265.453125 225.78125 263.046875 C 222.96875 261.039062 220.15625 263.046875 216.941406 263.847656 C 214.53125 264.652344 218.550781 267.058594 219.355469 268.660156 C 220.15625 270.265625 220.960938 271.871094 220.558594 273.875 L 216.140625 269.0625 C 210.917969 271.871094 207.703125 277.085938 203.285156 281.097656 C 201.273438 282.699219 202.078125 285.507812 202.078125 287.914062 C 199.265625 287.914062 196.050781 287.113281 194.445312 288.714844 C 193.242188 290.320312 193.640625 292.726562 193.640625 295.132812 C 189.625 294.734375 189.222656 288.714844 185.605469 289.917969 C 181.992188 290.722656 177.972656 291.121094 174.757812 293.128906 C 177.171875 297.941406 170.742188 295.132812 171.546875 295.9375 C 165.519531 292.328125 160.296875 289.519531 153.867188 291.925781 C 140.210938 287.511719 123.335938 289.519531 110.882812 291.125 C 110.882812 289.117188 111.285156 287.113281 110.480469 286.710938 C 109.675781 288.714844 107.265625 287.914062 107.667969 287.914062 C 100.035156 282.699219 92.402344 279.492188 84.367188 275.078125 C 77.136719 275.882812 70.304688 272.269531 68.296875 270.265625 C 62.671875 265.050781 56.246094 267.859375 51.023438 266.65625 C 39.773438 263.847656 35.753906 252.214844 34.550781 244.195312 C 33.746094 240.183594 30.53125 238.578125 29.328125 238.980469 C 24.105469 222.132812 16.070312 206.890625 9.640625 191.25 C 8.035156 187.238281 8.4375 183.226562 8.4375 178.816406 C 10.445312 179.617188 12.453125 179.214844 12.050781 176.410156 C 10.042969 163.171875 5.222656 153.144531 0 143.519531 C 2.8125 129.882812 3.214844 113.835938 9.640625 101.804688 C 15.265625 90.976562 25.710938 85.359375 32.941406 76.132812 C 35.355469 72.925781 35.355469 68.511719 37.765625 65.707031 C 45.800781 57.683594 53.835938 49.261719 62.671875 42.039062 C 66.691406 38.832031 71.511719 42.039062 77.535156 40.835938 C 79.546875 33.617188 87.582031 27.199219 95.214844 29.207031 C 98.425781 30.007812 104.855469 21.585938 106.863281 20.78125 C 110.078125 19.578125 108.472656 23.992188 108.472656 26.796875 C 116.105469 20.78125 126.550781 17.574219 136.191406 13.964844 "/>
<g clip-path="url(#clip1)" clip-rule="nonzero">
<path style=" stroke:none;fill-rule:nonzero;fill:rgb(99.607843%,0%,22.352941%);fill-opacity:1;" d="M 92.488281 204.636719 C 84.476562 204.636719 77.757812 203.394531 72.324219 200.914062 C 66.890625 198.429688 62.730469 195.234375 59.839844 191.316406 C 56.929688 187.417969 55.382812 183.3125 55.199219 178.992188 C 55.199219 178.253906 55.503906 177.585938 56.113281 176.976562 C 56.699219 176.390625 57.410156 176.09375 58.238281 176.09375 L 65.28125 176.09375 C 66.386719 176.09375 67.214844 176.371094 67.765625 176.921875 C 68.320312 177.472656 68.6875 178.117188 68.871094 178.851562 C 69.425781 181.058594 70.574219 183.238281 72.324219 185.386719 C 74.074219 187.558594 76.585938 189.351562 79.863281 190.765625 C 83.125 192.199219 87.332031 192.917969 92.488281 192.917969 C 100.40625 192.917969 106.234375 191.511719 109.96875 188.695312 C 113.691406 185.902344 115.550781 182.160156 115.550781 177.472656 C 115.550781 174.257812 114.566406 171.65625 112.59375 169.671875 C 110.605469 167.703125 107.585938 165.9375 103.535156 164.375 C 99.484375 162.8125 94.234375 161.113281 87.792969 159.273438 C 81.070312 157.34375 75.5 155.230469 71.082031 152.933594 C 66.664062 150.632812 63.375 147.785156 61.222656 144.382812 C 59.046875 140.984375 57.960938 136.664062 57.960938 131.421875 C 57.960938 126.460938 59.296875 122.019531 61.96875 118.105469 C 64.636719 114.207031 68.503906 111.109375 73.566406 108.8125 C 78.632812 106.511719 84.707031 105.363281 91.796875 105.363281 C 97.503906 105.363281 102.503906 106.117188 106.792969 107.625 C 111.066406 109.152344 114.628906 111.171875 117.484375 113.691406 C 120.335938 116.230469 122.5 118.941406 123.972656 121.828125 C 125.445312 124.730469 126.230469 127.5625 126.320312 130.320312 C 126.320312 130.964844 126.089844 131.578125 125.632812 132.167969 C 125.171875 132.773438 124.433594 133.078125 123.421875 133.078125 L 116.101562 133.078125 C 115.457031 133.078125 114.792969 132.894531 114.113281 132.527344 C 113.414062 132.160156 112.878906 131.46875 112.511719 130.457031 C 111.960938 126.6875 109.839844 123.519531 106.160156 120.945312 C 102.476562 118.371094 97.6875 117.082031 91.796875 117.082031 C 85.8125 117.082031 80.960938 118.234375 77.242188 120.53125 C 73.503906 122.828125 71.632812 126.414062 71.632812 131.285156 C 71.632812 134.410156 72.507812 137.003906 74.257812 139.0625 C 76.007812 141.140625 78.769531 142.957031 82.542969 144.519531 C 86.320312 146.082031 91.246094 147.738281 97.320312 149.484375 C 104.6875 151.507812 110.714844 153.640625 115.410156 155.882812 C 120.105469 158.144531 123.585938 160.945312 125.851562 164.292969 C 128.097656 167.65625 129.222656 171.957031 129.222656 177.199219 C 129.222656 182.988281 127.703125 187.925781 124.664062 192.007812 C 121.625 196.105469 117.371094 199.230469 111.902344 201.382812 C 106.417969 203.550781 99.945312 204.636719 92.488281 204.636719 Z M 182.113281 204.636719 C 173.644531 204.636719 166.617188 203.074219 161.039062 199.949219 C 155.480469 196.824219 151.273438 192.457031 148.417969 186.851562 C 145.5625 181.242188 144 174.714844 143.722656 167.269531 C 143.628906 163.503906 143.582031 159.457031 143.582031 155.136719 C 143.582031 150.816406 143.628906 146.679688 143.722656 142.730469 C 144 135.285156 145.5625 128.757812 148.417969 123.148438 C 151.273438 117.542969 155.480469 113.175781 161.039062 110.050781 C 166.617188 106.925781 173.644531 105.363281 182.113281 105.363281 C 188.464844 105.363281 194.035156 106.238281 198.824219 107.984375 C 203.609375 109.730469 207.589844 112.074219 210.753906 115.015625 C 213.941406 117.957031 216.363281 121.238281 218.019531 124.859375 C 219.675781 128.5 220.597656 132.25 220.78125 136.109375 C 220.875 136.9375 220.617188 137.628906 220.007812 138.179688 C 219.417969 138.730469 218.710938 139.007812 217.882812 139.007812 L 210.285156 139.007812 C 209.457031 139.007812 208.738281 138.777344 208.132812 138.316406 C 207.542969 137.855469 207.109375 137.03125 206.832031 135.835938 C 205.269531 128.664062 202.339844 123.746094 198.050781 121.082031 C 193.777344 118.417969 188.464844 117.082031 182.113281 117.082031 C 174.65625 117.082031 168.765625 119.171875 164.4375 123.34375 C 160.109375 127.535156 157.808594 134.226562 157.53125 143.417969 C 157.253906 150.957031 157.253906 158.675781 157.53125 166.582031 C 157.808594 175.773438 160.109375 182.457031 164.4375 186.628906 C 168.765625 190.820312 174.65625 192.917969 182.113281 192.917969 C 188.464844 192.917969 193.777344 191.582031 198.050781 188.917969 C 202.339844 186.253906 205.269531 181.335938 206.832031 174.164062 C 207.109375 172.96875 207.542969 172.144531 208.132812 171.683594 C 208.738281 171.222656 209.457031 170.992188 210.285156 170.992188 L 217.882812 170.992188 C 218.710938 170.992188 219.417969 171.242188 220.007812 171.738281 C 220.617188 172.253906 220.875 172.925781 220.78125 173.75 C 220.597656 177.613281 219.675781 181.378906 218.019531 185.058594 C 216.363281 188.734375 213.941406 192.042969 210.753906 194.984375 C 207.589844 197.925781 203.609375 200.269531 198.824219 202.015625 C 194.035156 203.761719 188.464844 204.636719 182.113281 204.636719 Z M 182.113281 204.636719 "/>
</g>
</g>
</svg>
